<?xml version="1.0" standalone="no"?>
<!DOCTYPE svg PUBLIC "-//W3C//DTD SVG 20010904//EN"
 "http://www.w3.org/TR/2001/REC-SVG-20010904/DTD/svg10.dtd">
<svg version="1.0" xmlns="http://www.w3.org/2000/svg"
 width="512.000000pt" height="512.000000pt" viewBox="0 0 512.000000 512.000000"
 preserveAspectRatio="xMidYMid meet">
<metadata>
Created by potrace 1.14, written by Peter Selinger 2001-2017
</metadata>
<g transform="translate(0.000000,512.000000) scale(0.100000,-0.100000)"
fill="#000000" stroke="none">
<path d="M2950 5109 c-36 -5 -83 -11 -105 -14 -22 -3 -54 -8 -72 -11 -17 -2
-83 -17 -145 -33 -383 -99 -696 -275 -953 -535 -180 -183 -309 -386 -390 -616
-39 -111 -70 -283 -74 -420 -1 -52 -6 -98 -9 -102 -4 -3 -45 -23 -92 -45 -137
-61 -273 -142 -393 -232 -373 -280 -601 -626 -688 -1041 -17 -82 -22 -141 -22
-270 -1 -91 2 -187 6 -215 18 -116 59 -271 95 -360 62 -151 208 -391 294 -481
l30 -32 -34 -38 c-18 -22 -35 -41 -38 -44 -3 -3 -46 -52 -95 -110 -50 -58 -97
-112 -105 -120 -29 -29 -126 -145 -142 -171 -22 -34 -17 -118 8 -152 10 -14
35 -35 54 -46 35 -19 54 -20 1180 -19 1248 0 1222 -1 1450 59 385 100 727 295
1006 573 186 187 305 361 393 577 44 108 87 266 97 354 4 33 8 67 10 75 1 8 3
48 3 88 l1 72 391 0 c430 0 437 1 480 62 23 32 35 93 25 132 -3 15 -90 123
-191 242 -102 119 -185 222 -185 229 0 8 4 17 10 20 15 9 130 162 130 173 0 5
6 14 13 20 19 16 111 205 146 300 71 193 99 484 65 687 -106 646 -636 1184
-1359 1380 -78 21 -147 35 -306 61 -55 9 -419 11 -489 3z"/>
</g>
</svg>
